<svg version="1.0" xmlns="http://www.w3.org/2000/svg" xmlns:xlink="http://www.w3.org/1999/xlink"
	 viewBox="0 0 100 100" enable-background="new 0 0 100 100" xml:space="preserve">
	
<svg xmlns="http://www.w3.org/2000/svg" xmlns:xlink="http://www.w3.org/1999/xlink" version="1.1" width="100" height="100" viewBox="0 0 2000 2000" x="0" y="0" shape-rendering="crispEdges"><defs/><rect x="0" y="0" width="2000" height="2000" fill="#ffffff"/><rect x="668" y="158" width="51" height="51" fill="#0d4066"/><rect x="770" y="158" width="51" height="51" fill="#0d4066"/><rect x="872" y="158" width="51" height="51" fill="#0d4066"/><rect x="1178" y="158" width="51" height="51" fill="#0d4066"/><rect x="1229" y="158" width="51" height="51" fill="#0d4066"/><rect x="1280" y="158" width="51" height="51" fill="#0d4066"/><rect x="1331" y="158" width="51" height="51" fill="#0d4066"/><rect x="1382" y="158" width="51" height="51" fill="#0d4066"/><rect x="566" y="209" width="51" height="51" fill="#0d4066"/><rect x="668" y="209" width="51" height="51" fill="#0d4066"/><rect x="821" y="209" width="51" height="51" fill="#0d4066"/><rect x="872" y="209" width="51" height="51" fill="#0d4066"/><rect x="923" y="209" width="51" height="51" fill="#0d4066"/><rect x="974" y="209" width="51" height="51" fill="#0d4066"/><rect x="1025" y="209" width="51" height="51" fill="#0d4066"/><rect x="1076" y="209" width="51" height="51" fill="#0d4066"/><rect x="1127" y="209" width="51" height="51" fill="#0d4066"/><rect x="770" y="260" width="51" height="51" fill="#0d4066"/><rect x="1025" y="260" width="51" height="51" fill="#0d4066"/><rect x="1127" y="260" width="51" height="51" fill="#0d4066"/><rect x="1229" y="260" width="51" height="51" fill="#0d4066"/><rect x="1280" y="260" width="51" height="51" fill="#0d4066"/><rect x="1331" y="260" width="51" height="51" fill="#0d4066"/><rect x="1382" y="260" width="51" height="51" fill="#0d4066"/><rect x="566" y="311" width="51" height="51" fill="#0d4066"/><rect x="617" y="311" width="51" height="51" fill="#0d4066"/><rect x="668" y="311" width="51" height="51" fill="#0d4066"/><rect x="770" y="311" width="51" height="51" fill="#0d4066"/><rect x="821" y="311" width="51" height="51" fill="#0d4066"/><rect x="923" y="311" width="51" height="51" fill="#0d4066"/><rect x="974" y="311" width="51" height="51" fill="#0d4066"/><rect x="1076" y="311" width="51" height="51" fill="#0d4066"/><rect x="1382" y="311" width="51" height="51" fill="#0d4066"/><rect x="617" y="362" width="51" height="51" fill="#0d4066"/><rect x="923" y="362" width="51" height="51" fill="#0d4066"/><rect x="974" y="362" width="51" height="51" fill="#0d4066"/><rect x="1076" y="362" width="51" height="51" fill="#0d4066"/><rect x="1127" y="362" width="51" height="51" fill="#0d4066"/><rect x="1178" y="362" width="51" height="51" fill="#0d4066"/><rect x="1229" y="362" width="51" height="51" fill="#0d4066"/><rect x="1280" y="362" width="51" height="51" fill="#0d4066"/><rect x="1331" y="362" width="51" height="51" fill="#0d4066"/><rect x="566" y="413" width="51" height="51" fill="#0d4066"/><rect x="617" y="413" width="51" height="51" fill="#0d4066"/><rect x="719" y="413" width="51" height="51" fill="#0d4066"/><rect x="770" y="413" width="51" height="51" fill="#0d4066"/><rect x="923" y="413" width="51" height="51" fill="#0d4066"/><rect x="974" y="413" width="51" height="51" fill="#0d4066"/><rect x="1025" y="413" width="51" height="51" fill="#0d4066"/><rect x="1076" y="413" width="51" height="51" fill="#0d4066"/><rect x="1178" y="413" width="51" height="51" fill="#0d4066"/><rect x="1280" y="413" width="51" height="51" fill="#0d4066"/><rect x="566" y="464" width="51" height="51" fill="#0d4066"/><rect x="668" y="464" width="51" height="51" fill="#0d4066"/><rect x="770" y="464" width="51" height="51" fill="#0d4066"/><rect x="872" y="464" width="51" height="51" fill="#0d4066"/><rect x="974" y="464" width="51" height="51" fill="#0d4066"/><rect x="1076" y="464" width="51" height="51" fill="#0d4066"/><rect x="1178" y="464" width="51" height="51" fill="#0d4066"/><rect x="1280" y="464" width="51" height="51" fill="#0d4066"/><rect x="1382" y="464" width="51" height="51" fill="#0d4066"/><rect x="617" y="515" width="51" height="51" fill="#0d4066"/><rect x="668" y="515" width="51" height="51" fill="#0d4066"/><rect x="719" y="515" width="51" height="51" fill="#0d4066"/><rect x="1025" y="515" width="51" height="51" fill="#0d4066"/><rect x="1127" y="515" width="51" height="51" fill="#0d4066"/><rect x="1229" y="515" width="51" height="51" fill="#0d4066"/><rect x="1331" y="515" width="51" height="51" fill="#0d4066"/><rect x="1382" y="515" width="51" height="51" fill="#0d4066"/><rect x="158" y="566" width="51" height="51" fill="#0d4066"/><rect x="209" y="566" width="51" height="51" fill="#0d4066"/><rect x="260" y="566" width="51" height="51" fill="#0d4066"/><rect x="311" y="566" width="51" height="51" fill="#0d4066"/><rect x="362" y="566" width="51" height="51" fill="#0d4066"/><rect x="464" y="566" width="51" height="51" fill="#0d4066"/><rect x="515" y="566" width="51" height="51" fill="#0d4066"/><rect x="566" y="566" width="51" height="51" fill="#0d4066"/><rect x="617" y="566" width="51" height="51" fill="#0d4066"/><rect x="719" y="566" width="51" height="51" fill="#0d4066"/><rect x="923" y="566" width="51" height="51" fill="#0d4066"/><rect x="1076" y="566" width="51" height="51" fill="#0d4066"/><rect x="1229" y="566" width="51" height="51" fill="#0d4066"/><rect x="1382" y="566" width="51" height="51" fill="#0d4066"/><rect x="1433" y="566" width="51" height="51" fill="#0d4066"/><rect x="1535" y="566" width="51" height="51" fill="#0d4066"/><rect x="1637" y="566" width="51" height="51" fill="#0d4066"/><rect x="1739" y="566" width="51" height="51" fill="#0d4066"/><rect x="158" y="617" width="51" height="51" fill="#0d4066"/><rect x="413" y="617" width="51" height="51" fill="#0d4066"/><rect x="566" y="617" width="51" height="51" fill="#0d4066"/><rect x="668" y="617" width="51" height="51" fill="#0d4066"/><rect x="770" y="617" width="51" height="51" fill="#0d4066"/><rect x="821" y="617" width="51" height="51" fill="#0d4066"/><rect x="1076" y="617" width="51" height="51" fill="#0d4066"/><rect x="1127" y="617" width="51" height="51" fill="#0d4066"/><rect x="1229" y="617" width="51" height="51" fill="#0d4066"/><rect x="1280" y="617" width="51" height="51" fill="#0d4066"/><rect x="1433" y="617" width="51" height="51" fill="#0d4066"/><rect x="1535" y="617" width="51" height="51" fill="#0d4066"/><rect x="1637" y="617" width="51" height="51" fill="#0d4066"/><rect x="1688" y="617" width="51" height="51" fill="#0d4066"/><rect x="158" y="668" width="51" height="51" fill="#0d4066"/><rect x="311" y="668" width="51" height="51" fill="#0d4066"/><rect x="362" y="668" width="51" height="51" fill="#0d4066"/><rect x="464" y="668" width="51" height="51" fill="#0d4066"/><rect x="515" y="668" width="51" height="51" fill="#0d4066"/><rect x="668" y="668" width="51" height="51" fill="#0d4066"/><rect x="821" y="668" width="51" height="51" fill="#0d4066"/><rect x="872" y="668" width="51" height="51" fill="#0d4066"/><rect x="923" y="668" width="51" height="51" fill="#0d4066"/><rect x="1025" y="668" width="51" height="51" fill="#0d4066"/><rect x="1076" y="668" width="51" height="51" fill="#0d4066"/><rect x="1280" y="668" width="51" height="51" fill="#0d4066"/><rect x="1433" y="668" width="51" height="51" fill="#0d4066"/><rect x="1535" y="668" width="51" height="51" fill="#0d4066"/><rect x="1586" y="668" width="51" height="51" fill="#0d4066"/><rect x="1637" y="668" width="51" height="51" fill="#0d4066"/><rect x="1739" y="668" width="51" height="51" fill="#0d4066"/><rect x="260" y="719" width="51" height="51" fill="#0d4066"/><rect x="311" y="719" width="51" height="51" fill="#0d4066"/><rect x="413" y="719" width="51" height="51" fill="#0d4066"/><rect x="515" y="719" width="51" height="51" fill="#0d4066"/><rect x="770" y="719" width="51" height="51" fill="#0d4066"/><rect x="821" y="719" width="51" height="51" fill="#0d4066"/><rect x="974" y="719" width="51" height="51" fill="#0d4066"/><rect x="1127" y="719" width="51" height="51" fill="#0d4066"/><rect x="1178" y="719" width="51" height="51" fill="#0d4066"/><rect x="1229" y="719" width="51" height="51" fill="#0d4066"/><rect x="1331" y="719" width="51" height="51" fill="#0d4066"/><rect x="1382" y="719" width="51" height="51" fill="#0d4066"/><rect x="1484" y="719" width="51" height="51" fill="#0d4066"/><rect x="1688" y="719" width="51" height="51" fill="#0d4066"/><rect x="1739" y="719" width="51" height="51" fill="#0d4066"/><rect x="1790" y="719" width="51" height="51" fill="#0d4066"/><rect x="209" y="770" width="51" height="51" fill="#0d4066"/><rect x="260" y="770" width="51" height="51" fill="#0d4066"/><rect x="413" y="770" width="51" height="51" fill="#0d4066"/><rect x="464" y="770" width="51" height="51" fill="#0d4066"/><rect x="566" y="770" width="51" height="51" fill="#0d4066"/><rect x="617" y="770" width="51" height="51" fill="#0d4066"/><rect x="668" y="770" width="51" height="51" fill="#0d4066"/><rect x="770" y="770" width="51" height="51" fill="#0d4066"/><rect x="872" y="770" width="51" height="51" fill="#0d4066"/><rect x="923" y="770" width="51" height="51" fill="#0d4066"/><rect x="1025" y="770" width="51" height="51" fill="#0d4066"/><rect x="1178" y="770" width="51" height="51" fill="#0d4066"/><rect x="1229" y="770" width="51" height="51" fill="#0d4066"/><rect x="1280" y="770" width="51" height="51" fill="#0d4066"/><rect x="1433" y="770" width="51" height="51" fill="#0d4066"/><rect x="1484" y="770" width="51" height="51" fill="#0d4066"/><rect x="1586" y="770" width="51" height="51" fill="#0d4066"/><rect x="1688" y="770" width="51" height="51" fill="#0d4066"/><rect x="1739" y="770" width="51" height="51" fill="#0d4066"/><rect x="209" y="821" width="51" height="51" fill="#0d4066"/><rect x="260" y="821" width="51" height="51" fill="#0d4066"/><rect x="311" y="821" width="51" height="51" fill="#0d4066"/><rect x="362" y="821" width="51" height="51" fill="#0d4066"/><rect x="413" y="821" width="51" height="51" fill="#0d4066"/><rect x="515" y="821" width="51" height="51" fill="#0d4066"/><rect x="617" y="821" width="51" height="51" fill="#0d4066"/><rect x="923" y="821" width="51" height="51" fill="#0d4066"/><rect x="1229" y="821" width="51" height="51" fill="#0d4066"/><rect x="1280" y="821" width="51" height="51" fill="#0d4066"/><rect x="1331" y="821" width="51" height="51" fill="#0d4066"/><rect x="1586" y="821" width="51" height="51" fill="#0d4066"/><rect x="1637" y="821" width="51" height="51" fill="#0d4066"/><rect x="1688" y="821" width="51" height="51" fill="#0d4066"/><rect x="260" y="872" width="51" height="51" fill="#0d4066"/><rect x="311" y="872" width="51" height="51" fill="#0d4066"/><rect x="362" y="872" width="51" height="51" fill="#0d4066"/><rect x="413" y="872" width="51" height="51" fill="#0d4066"/><rect x="464" y="872" width="51" height="51" fill="#0d4066"/><rect x="515" y="872" width="51" height="51" fill="#0d4066"/><rect x="566" y="872" width="51" height="51" fill="#0d4066"/><rect x="617" y="872" width="51" height="51" fill="#0d4066"/><rect x="668" y="872" width="51" height="51" fill="#0d4066"/><rect x="719" y="872" width="51" height="51" fill="#0d4066"/><rect x="770" y="872" width="51" height="51" fill="#0d4066"/><rect x="923" y="872" width="51" height="51" fill="#0d4066"/><rect x="974" y="872" width="51" height="51" fill="#0d4066"/><rect x="1025" y="872" width="51" height="51" fill="#0d4066"/><rect x="1178" y="872" width="51" height="51" fill="#0d4066"/><rect x="1280" y="872" width="51" height="51" fill="#0d4066"/><rect x="1331" y="872" width="51" height="51" fill="#0d4066"/><rect x="1382" y="872" width="51" height="51" fill="#0d4066"/><rect x="1433" y="872" width="51" height="51" fill="#0d4066"/><rect x="1535" y="872" width="51" height="51" fill="#0d4066"/><rect x="1586" y="872" width="51" height="51" fill="#0d4066"/><rect x="1637" y="872" width="51" height="51" fill="#0d4066"/><rect x="1739" y="872" width="51" height="51" fill="#0d4066"/><rect x="209" y="923" width="51" height="51" fill="#0d4066"/><rect x="311" y="923" width="51" height="51" fill="#0d4066"/><rect x="362" y="923" width="51" height="51" fill="#0d4066"/><rect x="515" y="923" width="51" height="51" fill="#0d4066"/><rect x="719" y="923" width="51" height="51" fill="#0d4066"/><rect x="872" y="923" width="51" height="51" fill="#0d4066"/><rect x="1076" y="923" width="51" height="51" fill="#0d4066"/><rect x="1127" y="923" width="51" height="51" fill="#0d4066"/><rect x="1229" y="923" width="51" height="51" fill="#0d4066"/><rect x="1331" y="923" width="51" height="51" fill="#0d4066"/><rect x="1382" y="923" width="51" height="51" fill="#0d4066"/><rect x="1484" y="923" width="51" height="51" fill="#0d4066"/><rect x="1688" y="923" width="51" height="51" fill="#0d4066"/><rect x="1739" y="923" width="51" height="51" fill="#0d4066"/><rect x="1790" y="923" width="51" height="51" fill="#0d4066"/><rect x="158" y="974" width="51" height="51" fill="#0d4066"/><rect x="260" y="974" width="51" height="51" fill="#0d4066"/><rect x="413" y="974" width="51" height="51" fill="#0d4066"/><rect x="464" y="974" width="51" height="51" fill="#0d4066"/><rect x="719" y="974" width="51" height="51" fill="#0d4066"/><rect x="923" y="974" width="51" height="51" fill="#0d4066"/><rect x="974" y="974" width="51" height="51" fill="#0d4066"/><rect x="1280" y="974" width="51" height="51" fill="#0d4066"/><rect x="1586" y="974" width="51" height="51" fill="#0d4066"/><rect x="1637" y="974" width="51" height="51" fill="#0d4066"/><rect x="1739" y="974" width="51" height="51" fill="#0d4066"/><rect x="260" y="1025" width="51" height="51" fill="#0d4066"/><rect x="413" y="1025" width="51" height="51" fill="#0d4066"/><rect x="566" y="1025" width="51" height="51" fill="#0d4066"/><rect x="617" y="1025" width="51" height="51" fill="#0d4066"/><rect x="668" y="1025" width="51" height="51" fill="#0d4066"/><rect x="770" y="1025" width="51" height="51" fill="#0d4066"/><rect x="821" y="1025" width="51" height="51" fill="#0d4066"/><rect x="872" y="1025" width="51" height="51" fill="#0d4066"/><rect x="1076" y="1025" width="51" height="51" fill="#0d4066"/><rect x="1178" y="1025" width="51" height="51" fill="#0d4066"/><rect x="1229" y="1025" width="51" height="51" fill="#0d4066"/><rect x="1433" y="1025" width="51" height="51" fill="#0d4066"/><rect x="1535" y="1025" width="51" height="51" fill="#0d4066"/><rect x="1586" y="1025" width="51" height="51" fill="#0d4066"/><rect x="1688" y="1025" width="51" height="51" fill="#0d4066"/><rect x="158" y="1076" width="51" height="51" fill="#0d4066"/><rect x="464" y="1076" width="51" height="51" fill="#0d4066"/><rect x="515" y="1076" width="51" height="51" fill="#0d4066"/><rect x="566" y="1076" width="51" height="51" fill="#0d4066"/><rect x="668" y="1076" width="51" height="51" fill="#0d4066"/><rect x="821" y="1076" width="51" height="51" fill="#0d4066"/><rect x="872" y="1076" width="51" height="51" fill="#0d4066"/><rect x="923" y="1076" width="51" height="51" fill="#0d4066"/><rect x="1025" y="1076" width="51" height="51" fill="#0d4066"/><rect x="1076" y="1076" width="51" height="51" fill="#0d4066"/><rect x="1178" y="1076" width="51" height="51" fill="#0d4066"/><rect x="1331" y="1076" width="51" height="51" fill="#0d4066"/><rect x="1382" y="1076" width="51" height="51" fill="#0d4066"/><rect x="1433" y="1076" width="51" height="51" fill="#0d4066"/><rect x="1535" y="1076" width="51" height="51" fill="#0d4066"/><rect x="1586" y="1076" width="51" height="51" fill="#0d4066"/><rect x="1637" y="1076" width="51" height="51" fill="#0d4066"/><rect x="1790" y="1076" width="51" height="51" fill="#0d4066"/><rect x="158" y="1127" width="51" height="51" fill="#0d4066"/><rect x="209" y="1127" width="51" height="51" fill="#0d4066"/><rect x="311" y="1127" width="51" height="51" fill="#0d4066"/><rect x="362" y="1127" width="51" height="51" fill="#0d4066"/><rect x="515" y="1127" width="51" height="51" fill="#0d4066"/><rect x="566" y="1127" width="51" height="51" fill="#0d4066"/><rect x="617" y="1127" width="51" height="51" fill="#0d4066"/><rect x="668" y="1127" width="51" height="51" fill="#0d4066"/><rect x="770" y="1127" width="51" height="51" fill="#0d4066"/><rect x="821" y="1127" width="51" height="51" fill="#0d4066"/><rect x="974" y="1127" width="51" height="51" fill="#0d4066"/><rect x="1025" y="1127" width="51" height="51" fill="#0d4066"/><rect x="1076" y="1127" width="51" height="51" fill="#0d4066"/><rect x="1127" y="1127" width="51" height="51" fill="#0d4066"/><rect x="1280" y="1127" width="51" height="51" fill="#0d4066"/><rect x="1331" y="1127" width="51" height="51" fill="#0d4066"/><rect x="1484" y="1127" width="51" height="51" fill="#0d4066"/><rect x="1790" y="1127" width="51" height="51" fill="#0d4066"/><rect x="158" y="1178" width="51" height="51" fill="#0d4066"/><rect x="209" y="1178" width="51" height="51" fill="#0d4066"/><rect x="413" y="1178" width="51" height="51" fill="#0d4066"/><rect x="464" y="1178" width="51" height="51" fill="#0d4066"/><rect x="515" y="1178" width="51" height="51" fill="#0d4066"/><rect x="617" y="1178" width="51" height="51" fill="#0d4066"/><rect x="668" y="1178" width="51" height="51" fill="#0d4066"/><rect x="770" y="1178" width="51" height="51" fill="#0d4066"/><rect x="872" y="1178" width="51" height="51" fill="#0d4066"/><rect x="923" y="1178" width="51" height="51" fill="#0d4066"/><rect x="1178" y="1178" width="51" height="51" fill="#0d4066"/><rect x="1229" y="1178" width="51" height="51" fill="#0d4066"/><rect x="1433" y="1178" width="51" height="51" fill="#0d4066"/><rect x="1535" y="1178" width="51" height="51" fill="#0d4066"/><rect x="1586" y="1178" width="51" height="51" fill="#0d4066"/><rect x="1739" y="1178" width="51" height="51" fill="#0d4066"/><rect x="158" y="1229" width="51" height="51" fill="#0d4066"/><rect x="413" y="1229" width="51" height="51" fill="#0d4066"/><rect x="515" y="1229" width="51" height="51" fill="#0d4066"/><rect x="617" y="1229" width="51" height="51" fill="#0d4066"/><rect x="974" y="1229" width="51" height="51" fill="#0d4066"/><rect x="1178" y="1229" width="51" height="51" fill="#0d4066"/><rect x="1229" y="1229" width="51" height="51" fill="#0d4066"/><rect x="1331" y="1229" width="51" height="51" fill="#0d4066"/><rect x="1484" y="1229" width="51" height="51" fill="#0d4066"/><rect x="1586" y="1229" width="51" height="51" fill="#0d4066"/><rect x="1688" y="1229" width="51" height="51" fill="#0d4066"/><rect x="1739" y="1229" width="51" height="51" fill="#0d4066"/><rect x="1790" y="1229" width="51" height="51" fill="#0d4066"/><rect x="158" y="1280" width="51" height="51" fill="#0d4066"/><rect x="413" y="1280" width="51" height="51" fill="#0d4066"/><rect x="464" y="1280" width="51" height="51" fill="#0d4066"/><rect x="617" y="1280" width="51" height="51" fill="#0d4066"/><rect x="668" y="1280" width="51" height="51" fill="#0d4066"/><rect x="719" y="1280" width="51" height="51" fill="#0d4066"/><rect x="770" y="1280" width="51" height="51" fill="#0d4066"/><rect x="923" y="1280" width="51" height="51" fill="#0d4066"/><rect x="1025" y="1280" width="51" height="51" fill="#0d4066"/><rect x="1076" y="1280" width="51" height="51" fill="#0d4066"/><rect x="1127" y="1280" width="51" height="51" fill="#0d4066"/><rect x="1331" y="1280" width="51" height="51" fill="#0d4066"/><rect x="1382" y="1280" width="51" height="51" fill="#0d4066"/><rect x="1433" y="1280" width="51" height="51" fill="#0d4066"/><rect x="1535" y="1280" width="51" height="51" fill="#0d4066"/><rect x="1586" y="1280" width="51" height="51" fill="#0d4066"/><rect x="1790" y="1280" width="51" height="51" fill="#0d4066"/><rect x="158" y="1331" width="51" height="51" fill="#0d4066"/><rect x="311" y="1331" width="51" height="51" fill="#0d4066"/><rect x="413" y="1331" width="51" height="51" fill="#0d4066"/><rect x="617" y="1331" width="51" height="51" fill="#0d4066"/><rect x="719" y="1331" width="51" height="51" fill="#0d4066"/><rect x="872" y="1331" width="51" height="51" fill="#0d4066"/><rect x="974" y="1331" width="51" height="51" fill="#0d4066"/><rect x="1127" y="1331" width="51" height="51" fill="#0d4066"/><rect x="1331" y="1331" width="51" height="51" fill="#0d4066"/><rect x="1484" y="1331" width="51" height="51" fill="#0d4066"/><rect x="1535" y="1331" width="51" height="51" fill="#0d4066"/><rect x="1637" y="1331" width="51" height="51" fill="#0d4066"/><rect x="1739" y="1331" width="51" height="51" fill="#0d4066"/><rect x="1790" y="1331" width="51" height="51" fill="#0d4066"/><rect x="158" y="1382" width="51" height="51" fill="#0d4066"/><rect x="362" y="1382" width="51" height="51" fill="#0d4066"/><rect x="413" y="1382" width="51" height="51" fill="#0d4066"/><rect x="464" y="1382" width="51" height="51" fill="#0d4066"/><rect x="515" y="1382" width="51" height="51" fill="#0d4066"/><rect x="566" y="1382" width="51" height="51" fill="#0d4066"/><rect x="617" y="1382" width="51" height="51" fill="#0d4066"/><rect x="719" y="1382" width="51" height="51" fill="#0d4066"/><rect x="923" y="1382" width="51" height="51" fill="#0d4066"/><rect x="974" y="1382" width="51" height="51" fill="#0d4066"/><rect x="1076" y="1382" width="51" height="51" fill="#0d4066"/><rect x="1178" y="1382" width="51" height="51" fill="#0d4066"/><rect x="1229" y="1382" width="51" height="51" fill="#0d4066"/><rect x="1280" y="1382" width="51" height="51" fill="#0d4066"/><rect x="1382" y="1382" width="51" height="51" fill="#0d4066"/><rect x="1433" y="1382" width="51" height="51" fill="#0d4066"/><rect x="1484" y="1382" width="51" height="51" fill="#0d4066"/><rect x="1535" y="1382" width="51" height="51" fill="#0d4066"/><rect x="1586" y="1382" width="51" height="51" fill="#0d4066"/><rect x="1637" y="1382" width="51" height="51" fill="#0d4066"/><rect x="566" y="1433" width="51" height="51" fill="#0d4066"/><rect x="617" y="1433" width="51" height="51" fill="#0d4066"/><rect x="770" y="1433" width="51" height="51" fill="#0d4066"/><rect x="821" y="1433" width="51" height="51" fill="#0d4066"/><rect x="872" y="1433" width="51" height="51" fill="#0d4066"/><rect x="1229" y="1433" width="51" height="51" fill="#0d4066"/><rect x="1280" y="1433" width="51" height="51" fill="#0d4066"/><rect x="1331" y="1433" width="51" height="51" fill="#0d4066"/><rect x="1382" y="1433" width="51" height="51" fill="#0d4066"/><rect x="1586" y="1433" width="51" height="51" fill="#0d4066"/><rect x="1688" y="1433" width="51" height="51" fill="#0d4066"/><rect x="566" y="1484" width="51" height="51" fill="#0d4066"/><rect x="668" y="1484" width="51" height="51" fill="#0d4066"/><rect x="821" y="1484" width="51" height="51" fill="#0d4066"/><rect x="872" y="1484" width="51" height="51" fill="#0d4066"/><rect x="923" y="1484" width="51" height="51" fill="#0d4066"/><rect x="1025" y="1484" width="51" height="51" fill="#0d4066"/><rect x="1076" y="1484" width="51" height="51" fill="#0d4066"/><rect x="1331" y="1484" width="51" height="51" fill="#0d4066"/><rect x="1382" y="1484" width="51" height="51" fill="#0d4066"/><rect x="1484" y="1484" width="51" height="51" fill="#0d4066"/><rect x="1586" y="1484" width="51" height="51" fill="#0d4066"/><rect x="1739" y="1484" width="51" height="51" fill="#0d4066"/><rect x="617" y="1535" width="51" height="51" fill="#0d4066"/><rect x="770" y="1535" width="51" height="51" fill="#0d4066"/><rect x="821" y="1535" width="51" height="51" fill="#0d4066"/><rect x="974" y="1535" width="51" height="51" fill="#0d4066"/><rect x="1127" y="1535" width="51" height="51" fill="#0d4066"/><rect x="1178" y="1535" width="51" height="51" fill="#0d4066"/><rect x="1229" y="1535" width="51" height="51" fill="#0d4066"/><rect x="1280" y="1535" width="51" height="51" fill="#0d4066"/><rect x="1382" y="1535" width="51" height="51" fill="#0d4066"/><rect x="1586" y="1535" width="51" height="51" fill="#0d4066"/><rect x="1637" y="1535" width="51" height="51" fill="#0d4066"/><rect x="1790" y="1535" width="51" height="51" fill="#0d4066"/><rect x="566" y="1586" width="51" height="51" fill="#0d4066"/><rect x="770" y="1586" width="51" height="51" fill="#0d4066"/><rect x="872" y="1586" width="51" height="51" fill="#0d4066"/><rect x="923" y="1586" width="51" height="51" fill="#0d4066"/><rect x="1025" y="1586" width="51" height="51" fill="#0d4066"/><rect x="1076" y="1586" width="51" height="51" fill="#0d4066"/><rect x="1382" y="1586" width="51" height="51" fill="#0d4066"/><rect x="1433" y="1586" width="51" height="51" fill="#0d4066"/><rect x="1484" y="1586" width="51" height="51" fill="#0d4066"/><rect x="1535" y="1586" width="51" height="51" fill="#0d4066"/><rect x="1586" y="1586" width="51" height="51" fill="#0d4066"/><rect x="1637" y="1586" width="51" height="51" fill="#0d4066"/><rect x="1790" y="1586" width="51" height="51" fill="#0d4066"/><rect x="566" y="1637" width="51" height="51" fill="#0d4066"/><rect x="668" y="1637" width="51" height="51" fill="#0d4066"/><rect x="923" y="1637" width="51" height="51" fill="#0d4066"/><rect x="974" y="1637" width="51" height="51" fill="#0d4066"/><rect x="1127" y="1637" width="51" height="51" fill="#0d4066"/><rect x="1178" y="1637" width="51" height="51" fill="#0d4066"/><rect x="1229" y="1637" width="51" height="51" fill="#0d4066"/><rect x="1484" y="1637" width="51" height="51" fill="#0d4066"/><rect x="1535" y="1637" width="51" height="51" fill="#0d4066"/><rect x="1586" y="1637" width="51" height="51" fill="#0d4066"/><rect x="1637" y="1637" width="51" height="51" fill="#0d4066"/><rect x="1688" y="1637" width="51" height="51" fill="#0d4066"/><rect x="1739" y="1637" width="51" height="51" fill="#0d4066"/><rect x="566" y="1688" width="51" height="51" fill="#0d4066"/><rect x="617" y="1688" width="51" height="51" fill="#0d4066"/><rect x="668" y="1688" width="51" height="51" fill="#0d4066"/><rect x="719" y="1688" width="51" height="51" fill="#0d4066"/><rect x="770" y="1688" width="51" height="51" fill="#0d4066"/><rect x="923" y="1688" width="51" height="51" fill="#0d4066"/><rect x="1025" y="1688" width="51" height="51" fill="#0d4066"/><rect x="1178" y="1688" width="51" height="51" fill="#0d4066"/><rect x="1331" y="1688" width="51" height="51" fill="#0d4066"/><rect x="1382" y="1688" width="51" height="51" fill="#0d4066"/><rect x="1433" y="1688" width="51" height="51" fill="#0d4066"/><rect x="1535" y="1688" width="51" height="51" fill="#0d4066"/><rect x="1637" y="1688" width="51" height="51" fill="#0d4066"/><rect x="566" y="1739" width="51" height="51" fill="#0d4066"/><rect x="668" y="1739" width="51" height="51" fill="#0d4066"/><rect x="719" y="1739" width="51" height="51" fill="#0d4066"/><rect x="872" y="1739" width="51" height="51" fill="#0d4066"/><rect x="974" y="1739" width="51" height="51" fill="#0d4066"/><rect x="1076" y="1739" width="51" height="51" fill="#0d4066"/><rect x="1127" y="1739" width="51" height="51" fill="#0d4066"/><rect x="1229" y="1739" width="51" height="51" fill="#0d4066"/><rect x="1280" y="1739" width="51" height="51" fill="#0d4066"/><rect x="1586" y="1739" width="51" height="51" fill="#0d4066"/><rect x="1688" y="1739" width="51" height="51" fill="#0d4066"/><rect x="1739" y="1739" width="51" height="51" fill="#0d4066"/><rect x="1790" y="1739" width="51" height="51" fill="#0d4066"/><rect x="566" y="1790" width="51" height="51" fill="#0d4066"/><rect x="617" y="1790" width="51" height="51" fill="#0d4066"/><rect x="668" y="1790" width="51" height="51" fill="#0d4066"/><rect x="719" y="1790" width="51" height="51" fill="#0d4066"/><rect x="923" y="1790" width="51" height="51" fill="#0d4066"/><rect x="1025" y="1790" width="51" height="51" fill="#0d4066"/><rect x="1076" y="1790" width="51" height="51" fill="#0d4066"/><rect x="1178" y="1790" width="51" height="51" fill="#0d4066"/><rect x="1280" y="1790" width="51" height="51" fill="#0d4066"/><rect x="1331" y="1790" width="51" height="51" fill="#0d4066"/><rect x="1484" y="1790" width="51" height="51" fill="#0d4066"/><rect x="1637" y="1790" width="51" height="51" fill="#0d4066"/><rect x="1688" y="1790" width="51" height="51" fill="#0d4066"/><rect x="1739" y="1790" width="51" height="51" fill="#0d4066"/><svg version="1.0" id="Ebene_1" x="158" y="158" width="357" height="357" viewBox="0 0 699.988 699.986" enable-background="new 0 0 699.988 699.986" xml:space="preserve" shape-rendering="auto">
<g>
	<path fill="#0d4066" d="M67.1,632.887C23.83,589.616,0,532.286,0,471.464V-0.001h471.468c60.822,0,118.15,23.83,161.42,67.101   s67.1,100.599,67.1,161.425v471.462H228.52C167.696,699.987,110.369,676.157,67.1,632.887z M599.988,599.989V239.233   c0-76.774-62.459-139.236-139.229-139.236H99.999v360.76c0,76.771,62.459,139.232,139.231,139.232H599.988L599.988,599.989z"/>
</g>
</svg>
<svg version="1.0" id="Ebene_1" x="158" y="158" width="357" height="357" viewBox="0 0 699.988 699.986" enable-background="new 0 0 699.988 699.986" xml:space="preserve" shape-rendering="auto">
<path fill="#3d6edf" d="M499.99,291.612v208.377H291.61c-50.382,0-91.612-41.229-91.612-91.613V199.996h208.383  C458.76,199.996,499.99,241.228,499.99,291.612z"/>
</svg>
<svg version="1.1" id="Ebene_1" x="1484" y="158" width="357" height="357" viewBox="0 0 699.988 699.986" enable-background="new 0 0 699.988 699.986" xml:space="preserve" shape-rendering="auto">
<g>
	<path fill="#0d4066" d="M472.469,699.987H1V228.525C1,167.698,24.829,110.37,68.099,67.1C111.368,23.83,168.697,0,229.523,0   h471.465v471.463c0,60.824-23.83,118.153-67.1,161.426C590.618,676.158,533.292,699.987,472.469,699.987z M100.998,599.989H461.76   c76.771,0,139.229-62.461,139.229-139.234V99.997H240.232c-76.773,0-139.233,62.461-139.233,139.235L100.998,599.989   L100.998,599.989z"/>
</g>
</svg>
<svg version="1.1" id="Ebene_1" x="1484" y="158" width="357" height="357" viewBox="0 0 699.988 699.986" enable-background="new 0 0 699.988 699.986" xml:space="preserve" shape-rendering="auto">
<path fill="#3d6edf" d="M199.997,291.612V499.99h208.382c50.383,0,91.612-41.229,91.612-91.614V199.997H291.61  C241.227,199.997,199.997,241.228,199.997,291.612z"/>
</svg>
<svg version="1.1" id="Ebene_1" x="158" y="1484" width="357" height="357" viewBox="0 0 699.988 699.986" enable-background="new 0 0 699.988 699.986" xml:space="preserve" shape-rendering="auto">
<g>
	<path fill="#0d4066" d="M472.469,699.987H1V228.525C1,167.698,24.829,110.37,68.099,67.1C111.368,23.83,168.697,0,229.523,0   h471.465v471.463c0,60.824-23.83,118.153-67.1,161.426C590.618,676.158,533.292,699.987,472.469,699.987z M100.998,599.989H461.76   c76.771,0,139.229-62.461,139.229-139.234V99.997H240.232c-76.773,0-139.233,62.461-139.233,139.235L100.998,599.989   L100.998,599.989z"/>
</g>
</svg>
<svg version="1.1" id="Ebene_1" x="158" y="1484" width="357" height="357" viewBox="0 0 699.988 699.986" enable-background="new 0 0 699.988 699.986" xml:space="preserve" shape-rendering="auto">
<path fill="#3d6edf" d="M199.997,291.612V499.99h208.382c50.383,0,91.612-41.229,91.612-91.614V199.997H291.61  C241.227,199.997,199.997,241.228,199.997,291.612z"/>
</svg>
</svg>

</svg>
